<svg xmlns="http://www.w3.org/2000/svg" xmlns:xlink="http://www.w3.org/1999/xlink" version="1.1" x="0px" y="0px" viewBox="0 0 64 80" style="enable-background:new 0 0 64 64;" xml:space="preserve"><path d="M32,46c7.732,0,14-6.268,14-14s-6.268-14-14-14s-14,6.268-14,14S24.268,46,32,46z M32,33c-2.757,0-5-2.243-5-5  c0-2.414,1.721-4.434,4-4.899V21h2v2.101c2.279,0.465,4,2.484,4,4.899h-2c0-1.654-1.346-3-3-3s-3,1.346-3,3s1.346,3,3,3  c2.757,0,5,2.243,5,5c0,2.414-1.721,4.434-4,4.899V43h-2v-2.101c-2.279-0.465-4-2.484-4-4.899h2c0,1.654,1.346,3,3,3s3-1.346,3-3  S33.654,33,32,33z"/><rect x="29" y="2" width="6" height="6"/><rect x="56" y="2" width="6" height="6"/><rect x="2" y="2" width="6" height="6"/><rect x="29" y="56" width="6" height="6"/><rect x="56" y="56" width="6" height="6"/><rect x="2" y="56" width="6" height="6"/><rect x="56" y="29" width="6" height="6"/><rect x="2" y="29" width="6" height="6"/><rect x="31" y="11" width="2" height="2"/><rect x="31" y="14" width="2" height="2"/><rect x="31" y="48" width="2" height="2"/><rect x="31" y="51" width="2" height="2"/><rect x="51" y="31" width="2" height="2"/><rect x="48" y="31" width="2" height="2"/><rect x="14" y="31" width="2" height="2"/><rect x="11" y="31" width="2" height="2"/><path d="M43.707,21.707L52,13.414V15h2v-4c0-0.552-0.447-1-1-1h-4v2h1.586l-8.293,8.293L43.707,21.707z"/><path d="M21.293,43.293L13,51.586V50h-2v4c0,0.552,0.447,1,1,1h4v-2h-1.586l8.293-8.293L21.293,43.293z"/><path d="M50,54h4c0.553,0,1-0.448,1-1v-4h-2v1.586l-8.293-8.293l-1.414,1.414L51.586,52H50V54z"/><path d="M12,13.414l8.293,8.293l1.414-1.414L13.414,12H15v-2h-4c-0.553,0-1,0.448-1,1v4h2V13.414z"/><text x="0" y="79" fill="#000000" font-size="5px" font-weight="bold" font-family="'Helvetica Neue', Helvetica, Arial-Unicode, Arial, Sans-serif"></text><text x="0" y="84" fill="#000000" font-size="5px" font-weight="bold" font-family="'Helvetica Neue', Helvetica, Arial-Unicode, Arial, Sans-serif"></text></svg>