<svg xmlns="http://www.w3.org/2000/svg" xmlns:xlink="http://www.w3.org/1999/xlink" version="1.1" x="0px" y="0px" viewBox="0 0 100 125" enable-background="new 0 0 100 100" xml:space="preserve"><g><defs><rect id="b" x="18.185" y="1.686" width="63.631" height="96.629"/></defs><clipPath id="a"><use xlink:href="#b" overflow="visible"/></clipPath><path clip-path="url(#a)" fill="#000000" d="M62.271,62.692c0.271-6.088,1.04-8.207,2.277-9.727   c5.285-5.124,8.315-12.263,8.315-19.604c0-0.407-0.014-0.812-0.032-1.215c-1.176,0.677-2.566,1.065-4.069,1.065   c-1.457,0-2.805-0.364-3.956-1.002c0.022,0.383,0.038,0.767,0.038,1.152c0.001,5.245-2.213,10.363-6.073,14.045l-0.117,0.123   c-2.87,3.366-4.061,7.379-4.392,14.805c-0.054,1.199,0.349,2.283,1.131,3.053c0.693,0.682,1.651,1.083,2.693,1.13   c0.068,0.002,0.137,0.005,0.204,0.005C60.532,66.523,62.169,64.948,62.271,62.692 M54.628,93.016H36.421   c1.805,3.162,5.201,5.299,9.104,5.299C49.426,98.314,52.822,96.178,54.628,93.016 M31.676,85.508c0,0.281,0.025,0.555,0.073,0.817   c0.315,1.837,1.727,3.183,3.473,3.183h20.609c1.984,0,3.54-1.737,3.54-3.964c0-0.286-0.028-0.563-0.077-0.831   c-0.32-1.825-1.728-3.164-3.471-3.164H35.215C33.229,81.549,31.676,83.287,31.676,85.508 M29.685,72.774   c-0.21,0.478-0.327,1-0.327,1.551c0,2.185,1.834,3.964,4.084,3.964h24.149c1.974,0,3.622-1.362,4.003-3.168   c0.061-0.27,0.096-0.547,0.096-0.834c0-2.184-1.835-3.963-4.085-3.963H33.458C31.758,70.324,30.299,71.34,29.685,72.774    M54.672,7.633C51.804,6.61,48.718,6.05,45.502,6.05c-15.063,0-27.318,12.253-27.318,27.312c0,7.341,3.029,14.48,8.314,19.604   c1.237,1.517,2.007,3.635,2.279,9.726c0.1,2.254,1.737,3.831,3.982,3.831c0.066,0,0.132-0.003,0.199-0.005   c1.122-0.05,2.127-0.502,2.833-1.272c0.701-0.768,1.044-1.774,0.993-2.912c-0.331-7.426-1.521-11.438-4.394-14.806l-0.116-0.122   c-3.86-3.682-6.074-8.801-6.074-14.043c0.001-10.641,8.655-19.297,19.292-19.297c1.64,0,3.248,0.202,4.795,0.593   C50.317,11.471,52.089,8.801,54.672,7.633 M81.815,14.737c0-1.866-1.306-3.328-2.974-3.328h-6.751V4.657   c0-1.667-1.463-2.972-3.328-2.972s-3.326,1.305-3.326,2.972v6.752h-3.678h-3.074c-1.667,0-2.972,1.462-2.972,3.328   c0,1.865,1.305,3.326,2.972,3.326h6.752v6.752c0,1.665,1.461,2.971,3.326,2.971c1.403,0,2.578-0.738,3.075-1.814   c0.162-0.354,0.253-0.744,0.253-1.156v-6.752h6.751C80.509,18.063,81.815,16.603,81.815,14.737"/></g><text x="0" y="115" fill="#000000" font-size="5px" font-weight="bold" font-family="'Helvetica Neue', Helvetica, Arial-Unicode, Arial, Sans-serif"></text><text x="0" y="120" fill="#000000" font-size="5px" font-weight="bold" font-family="'Helvetica Neue', Helvetica, Arial-Unicode, Arial, Sans-serif"></text></svg>