<svg xmlns="http://www.w3.org/2000/svg" data-name="Layer 1" viewBox="0 0 128 160" x="0px" y="0px"><title>miscellaneous 183_ SOLID</title><path d="M106.68549,70h-4.2558c-1.26709,3.34668-2.72656,6-4.43359,6-1.70557,0-3.16357-2.65332-4.43018-6H89.30518c1.94531,5.61127,4.30524,10,8.69092,10C102.34668,80,104.76563,75.4873,106.68549,70Z"/><path d="M46.99561,48c-4.38519,0-6.74463,4.38867-8.68939,10h4.26068c1.2666-3.34674,2.72412-6,4.42871-6,1.70648,0,3.16547,2.65326,4.43262,6h4.25537C53.76422,52.5127,51.3457,48,46.99561,48Z"/><path d="M106.30859,58h4.26068c1.26715-3.34674,2.72565-6,4.43073-6a2,2,0,0,0,0-4C110.61377,48,108.25391,52.38867,106.30859,58Z"/><path d="M72.30908,58h4.2558c1.26709-3.34674,2.72565-6,4.43219-6,1.70551,0,3.164,2.65326,4.4306,6h4.2608c-1.94525-5.61133-4.30518-10-8.69141-10C76.64752,48,74.22852,52.5127,72.30908,58Z"/><path d="M11,50a2.0001,2.0001,0,0,0,2,2c1.70508,0,3.16309,2.65326,4.42969,6h4.26123C19.74561,52.38867,17.38568,48,13,48A2.0001,2.0001,0,0,0,11,50Z"/><path d="M72.68652,70H68.42627c-1.26654,3.34668-2.7251,6-4.43066,6-1.70459,0-3.1626-2.65332-4.4292-6H55.30573c1.94525,5.61127,4.30469,10,8.68988,10C68.38177,80,70.74121,75.61127,72.68652,70Z"/><path d="M30,76c-1.70612,0-3.165-2.65332-4.43158-6H21.313C23.23242,75.4873,25.65088,80,30,80c4.38568,0,6.74561-4.38873,8.69043-10H34.42969C33.16309,73.34668,31.70508,76,30,76Z"/><path d="M126.9668,62.249l-5.43121-3A1.99514,1.99514,0,0,0,118.84473,62H2a2,2,0,0,0,0,4H118.84473a1.99168,1.99168,0,0,0-.02631,1.9668,2.0224,2.0224,0,0,0,2.71716.78418l5.43121-3a2.00035,2.00035,0,0,0,0-3.502Z"/><text x="0" y="143" fill="#000000" font-size="5px" font-weight="bold" font-family="'Helvetica Neue', Helvetica, Arial-Unicode, Arial, Sans-serif"></text><text x="0" y="148" fill="#000000" font-size="5px" font-weight="bold" font-family="'Helvetica Neue', Helvetica, Arial-Unicode, Arial, Sans-serif"></text></svg>